<svg width="360" height="40" viewBox="0 0 360 40" fill="none" xmlns="http://www.w3.org/2000/svg"><path fill-rule="evenodd" clip-rule="evenodd" d="M4 0h352c2.2 0 4 1.8 4 4v36H0V4c0-2.2 1.8-4 4-4Zm12.9288 23.5c1.2504 2.1658 3.5613 3.5 6.0622 3.5 3.866 0 7-3.134 7-7s-3.134-7-7-7c-2.5009 0-4.8118 1.3342-6.0622 3.5s-1.2504 4.8342 0 7ZM46.002 27c-2.5009 0-4.8118-1.3342-6.0622-3.5-1.2505-2.1658-1.2505-4.8342 0-7 1.2504-2.1658 3.5613-3.5 6.0622-3.5 3.8659 0 7 3.134 7 7s-3.1341 7-7 7Zm16.9488-3.5c1.2504 2.1658 3.5613 3.5 6.0621 3.5 3.866 0 7-3.134 7-7s-3.134-7-7-7c-2.5008 0-4.8117 1.3342-6.0621 3.5-1.2505 2.1658-1.2505 4.8342 0 7Z" fill="#4D4D4D"/></svg>