<svg width="26" height="23" viewBox="0 0 26 23" fill="none" xmlns="http://www.w3.org/2000/svg"><g opacity=".4" fill="#4D4D4D"><path d="m7.23738 7.48591-2.8105 2.82899 7.73212 7.783L25.9999 4.16591l-2.8095-2.829L12.159 12.4389 7.23738 7.48591Z"/><path d="M20.8627 20c0 .542-.455 1-.9935 1H2.98038c-.53845 0-.99346-.458-.99346-1V3c0-.542.45501-1 .99346-1H19.7778L21.3525.415c-.4491-.26846-.961-.4117-1.4833-.415H2.98038C1.34117 0 0 1.35 0 3v17c0 1.65 1.34117 3 2.98038 3H19.8692c1.6392 0 2.9804-1.35 2.9804-3v-9.829l-1.9869 2V20Z"/></g></svg>