<svg width="25" height="23" viewBox="0 0 25 23" fill="none" xmlns="http://www.w3.org/2000/svg"><path d="M6.95925 7.48591 4.25684 10.3149l7.43476 7.783L25.0002 4.16591l-2.7014-2.829L11.6916 12.4389 6.95925 7.48591Z" fill="#4D4D4D"/><path d="M20.0604 20c0 .542-.4375 1-.9553 1H2.86577c-.51775 0-.95526-.458-.95526-1V3c0-.542.43751-1 .95526-1H19.0172L20.5313.415c-.4317-.26846-.924-.4117-1.4262-.415H2.86577C1.2896 0 0 1.35 0 3v17c0 1.65 1.2896 3 2.86577 3H19.1051c1.5762 0 2.8658-1.35 2.8658-3v-9.829l-1.9105 2V20Z" fill="#4D4D4D"/></svg>